<svg width="87" height="72" viewBox="0 0 87 72" fill="none" xmlns="http://www.w3.org/2000/svg">
<path d="M40.9189 65.7363C40.9189 68.1363 38.9189 68.7363 37.9189 68.7363C38.9189 68.7363 40.9189 69.3363 40.9189 71.7363C40.9189 69.403 43.4189 68.7363 43.9189 68.7363C43.4189 68.7363 40.9189 68.0697 40.9189 65.7363Z" fill="white"/>
<path d="M34.6076 16.3589C34.6076 18.5098 32.8152 19.0476 31.9189 19.0476C32.8152 19.0476 34.6076 19.5853 34.6076 21.7363C34.6076 19.6451 36.8482 19.0476 37.2963 19.0476C36.8482 19.0476 34.6076 18.4501 34.6076 16.3589Z" fill="white"/>
<path d="M13.4189 37.7363C13.4189 38.9363 12.4189 39.2363 11.9189 39.2363C12.4189 39.2363 13.4189 39.5363 13.4189 40.7363C13.4189 39.5697 14.6689 39.2363 14.9189 39.2363C14.6689 39.2363 13.4189 38.903 13.4189 37.7363Z" fill="white"/>
<path d="M65.4189 10.1138C65.4189 11.3138 64.4189 11.6138 63.9189 11.6138C64.4189 11.6138 65.4189 11.9138 65.4189 13.1138C65.4189 11.9471 66.6689 11.6138 66.9189 11.6138C66.6689 11.6138 65.4189 11.2804 65.4189 10.1138Z" fill="white"/>
<path d="M38.9189 36.7363C38.9189 39.9363 36.2523 40.7363 34.9189 40.7363C36.2523 40.7363 38.9189 41.5363 38.9189 44.7363C38.9189 41.6252 42.2523 40.7363 42.9189 40.7363C42.2523 40.7363 38.9189 39.8474 38.9189 36.7363Z" fill="white"/>
<path d="M4.91895 7.73633C4.91895 10.9363 2.25228 11.7363 0.918945 11.7363C2.25228 11.7363 4.91895 12.5363 4.91895 15.7363C4.91895 12.6252 8.25228 11.7363 8.91895 11.7363C8.25228 11.7363 4.91895 10.8474 4.91895 7.73633Z" fill="white"/>
<path d="M79.5671 16.5405C82.4348 16.5405 83.1517 18.9302 83.1517 20.125C83.1517 18.9302 83.8686 16.5405 86.7362 16.5405C83.9482 16.5405 83.1517 13.5533 83.1517 12.9559C83.1517 13.5533 82.3551 16.5405 79.5671 16.5405Z" fill="white"/>
<path d="M48.5742 4.08105C51.7742 4.08105 52.5742 6.74772 52.5742 8.08105C52.5742 6.74772 53.3742 4.08105 56.5742 4.08105C53.4631 4.08105 52.5742 0.747721 52.5742 0.0810545C52.5742 0.747721 51.6853 4.08105 48.5742 4.08105Z" fill="white"/>
<path d="M57.9189 19.7363C57.9189 27.7363 51.2523 29.7363 47.9189 29.7363C51.2523 29.7363 57.9189 31.7363 57.9189 39.7363C57.9189 31.9586 66.2523 29.7363 67.9189 29.7363C66.2523 29.7363 57.9189 27.5141 57.9189 19.7363Z" fill="white"/>
</svg>
